<svg version="1.1" id="Layer_1" xmlns="http://www.w3.org/2000/svg" xmlns:xlink="http://www.w3.org/1999/xlink" x="0px" y="0px" viewBox="0 0 1200 1200" enable-background="new 0 0 1200 1200" xml:space="preserve">
<g>
	<g>
		<path fill="#E7327C" d="M600.013,50c-205.917,0-372.87,166.916-372.87,372.88c0,177.829,124.53,326.49,291.124,363.771
			L600.013,1150l81.768-363.35C848.35,749.394,972.857,600.709,972.857,422.88C972.857,216.916,805.928,50,600.013,50z
			 M600.013,713.113c-160.273,0-290.233-129.975-290.233-290.233c0-160.32,129.96-290.245,290.233-290.245
			c160.317,0,290.255,129.925,290.255,290.245C890.268,583.138,760.331,713.113,600.013,713.113z" style="fill: rgb(152, 46, 64);"></path>
		<g>
			<path fill="#E7327C" d="M426.329,393.219v131.619v58.637h58.672h115.013h115.059h58.598v-58.637V393.219L600.013,273.365
				L426.329,393.219z M662.409,385.19v117.727h-62.396H537.64V385.19h62.373H662.409z" style="fill: rgb(152, 46, 64);"></path>
			<path fill="#E7327C" d="M819.098,344.414L613.641,197.556c-4.064-2.909-8.87-4.386-13.628-4.386
				c-4.809,0-9.542,1.477-13.63,4.386L380.926,344.414c-10.527,7.487-12.956,22.186-5.407,32.676
				c7.475,10.551,22.161,12.993,32.713,5.494l191.782-137.149l191.804,137.149c4.16,2.919,8.895,4.349,13.606,4.349
				c7.33,0,14.566-3.448,19.082-9.843C832.079,366.6,829.603,351.902,819.098,344.414z" style="fill: rgb(152, 46, 64);"></path>
		</g>
	</g>
</g>
</svg>